# Blender 3.3.1
# www.blender.org
mtllib Arrow.mtl
o Cube
v 0.284549 1.007532 -0.284549
v 0.000000 -2.000000 0.000000
v 0.284549 1.007532 0.284549
v -0.284549 1.007532 -0.284549
v -0.284549 1.007532 0.284549
v 0.572221 0.000000 -0.572221
v -0.572221 0.000000 0.572221
v 0.572221 0.000000 0.572221
v -0.572221 0.000000 -0.572221
v -0.284549 0.007532 0.284549
v 0.284549 0.007532 -0.284549
v 0.284549 0.007532 0.284549
v -0.284549 0.007532 -0.284549
vn -0.0000 1.0000 -0.0000
vn -0.0000 -0.0000 1.0000
vn -1.0000 -0.0000 -0.0000
vn 1.0000 -0.0000 -0.0000
vn -0.0000 -0.0000 -1.0000
vn -0.0000 -0.2751 -0.9614
vn 0.9614 -0.2751 -0.0000
vn -0.9614 -0.2751 -0.0000
vn -0.0000 -0.2751 0.9614
vn -0.0000 0.9997 -0.0262
vn 0.0262 0.9997 -0.0000
vn -0.0262 0.9997 -0.0000
vn -0.0000 0.9997 0.0262
vt 0.625000 0.500000
vt 0.375000 0.250000
vt 0.375000 0.500000
vt 0.375000 0.000000
vt 0.375000 0.750000
vt 0.625000 0.750000
vt 0.875000 0.500000
vt 0.625000 0.250000
vt 0.875000 0.750000
vt 0.625000 1.000000
vt 0.625000 0.000000
vt 0.500000 0.500000
vt 0.500000 1.000000
vt 0.500000 0.000000
vt 0.500000 0.750000
vt 0.500000 0.250000
vt 0.562500 0.000000
vt 0.562500 1.000000
vt 0.562500 0.500000
vt 0.562500 0.750000
vt 0.562500 0.250000
s 0
usemtl Material
f 4/7/1 3/6/1 1/1/1
f 3/6/2 10/18/2 12/20/2
f 5/11/3 13/21/3 10/17/3
f 1/1/4 12/20/4 11/19/4
f 4/8/5 11/19/5 13/21/5
f 2/2/6 9/16/6 6/12/6
f 2/3/7 6/12/7 8/15/7
f 2/4/8 7/14/8 9/16/8
f 2/5/9 8/15/9 7/13/9
f 9/16/10 11/19/10 6/12/10
f 6/12/11 12/20/11 8/15/11
f 7/14/12 13/21/12 9/16/12
f 8/15/13 10/18/13 7/13/13
f 4/7/1 5/9/1 3/6/1
f 3/6/2 5/10/2 10/18/2
f 5/11/3 4/8/3 13/21/3
f 1/1/4 3/6/4 12/20/4
f 4/8/5 1/1/5 11/19/5
f 9/16/10 13/21/10 11/19/10
f 6/12/11 11/19/11 12/20/11
f 7/14/12 10/17/12 13/21/12
f 8/15/13 12/20/13 10/18/13
