# Blender v2.92.0 OBJ File: ''
# www.blender.org
mtllib Flag2.mtl
o Cube
v 2.000078 -0.068939 -0.069905
v 0.000078 -0.068939 -0.069905
v 2.000078 -0.068939 0.069905
v 0.000078 -0.068939 0.069905
v 2.000078 0.070871 -0.069905
v 0.000078 0.070871 -0.069905
v 2.000078 0.070871 0.069905
v 0.000078 0.070871 0.069905
v 0.000078 0.070871 0.000000
v 2.000078 -0.068939 0.000000
v 2.000078 0.070871 0.000000
v 0.000078 -0.068939 0.000000
v 1.000078 -0.068939 -0.069905
v 1.000078 0.070871 0.069905
v 1.000078 -0.068939 0.069905
v 1.000078 0.070871 -0.069905
v 1.000078 -0.068939 0.000000
v 1.000078 0.070871 0.000000
v 1.500078 0.070871 0.069905
v 1.500078 -0.068939 -0.069905
v 1.500078 -0.068939 0.069905
v 1.500078 0.070871 -0.069905
v 1.500078 0.070871 0.000000
v 1.750078 0.070871 0.069905
v 1.750078 -0.068939 -0.069905
v 1.750078 -0.068939 0.069905
v 1.750078 0.070871 -0.069905
v 1.750078 0.070871 0.000000
v 1.250078 -0.068939 -0.069905
v 1.250078 -0.068939 0.069905
v 1.250078 0.070871 -0.069905
v 1.250078 -0.068939 0.000000
v 1.250078 0.070871 0.000000
v 1.250078 0.070871 0.069905
v 0.000078 0.070871 0.034952
v 2.000078 -0.068939 0.034952
v 2.000078 0.070871 0.034952
v 0.000078 -0.068939 0.034952
v 1.000078 0.070871 0.034952
v 1.000078 -0.068939 0.034952
v 1.500078 0.070871 0.034952
v 1.500078 -0.068939 0.034952
v 1.750078 0.070871 0.034952
v 1.750078 -0.068939 0.034952
v 1.250078 -0.068939 0.034952
v 1.250078 0.070871 0.034952
v 2.000078 0.070871 -0.034952
v 0.000078 -0.068939 -0.034952
v 0.000078 0.070871 -0.034952
v 2.000078 -0.068939 -0.034952
v 1.000078 -0.068939 -0.034952
v 1.000078 0.070871 -0.034952
v 1.500078 -0.068939 -0.034952
v 1.500078 0.070871 -0.034952
v 1.750078 -0.068939 -0.034952
v 1.750078 0.070871 -0.034952
v 1.250078 0.070871 -0.034952
v 1.250078 -0.068939 -0.034952
v 2.000078 0.070871 0.017476
v 0.000078 -0.068939 0.017476
v 1.000078 0.070871 0.017476
v 1.500078 0.070871 0.017476
v 1.750078 0.070871 0.017476
v 1.250078 0.070871 0.017476
v 0.000078 0.070871 0.017476
v 2.000078 -0.068939 0.017476
v 1.000078 -0.068939 0.017476
v 1.500078 -0.068939 0.017476
v 1.750078 -0.068939 0.017476
v 1.250078 -0.068939 0.017476
v 0.000078 0.070871 -0.017476
v 2.000078 -0.068939 -0.017476
v 1.000078 -0.068939 -0.017476
v 1.500078 -0.068939 -0.017476
v 1.750078 -0.068939 -0.017476
v 1.250078 -0.068939 -0.017476
v 2.000078 0.070871 -0.017476
v 0.000078 -0.068939 -0.017476
v 1.000078 0.070871 -0.017476
v 1.500078 0.070871 -0.017476
v 1.750078 0.070871 -0.017476
v 1.250078 0.070871 -0.017476
v 2.000078 -1.007992 -0.017476
v 2.000078 -1.007992 0.000000
v 1.750078 -1.007992 0.000000
v 1.500078 -1.007992 0.000000
v 1.500078 -1.007992 -0.017476
v 1.750078 -1.007992 -0.017476
v 1.250078 -1.007992 0.000000
v 1.250078 -1.007992 -0.017476
v 2.000078 -1.007992 0.017476
v 1.500078 -1.007992 0.017476
v 1.750078 -1.007992 0.017476
v 1.250078 -1.007992 0.017476
vt 0.980814 0.862216
vt 0.730814 0.924716
vt 0.730814 0.862216
vt 0.265726 0.750000
vt 0.234476 1.000000
vt 0.234476 0.750000
vt 0.265726 0.187500
vt 0.234476 0.250000
vt 0.234476 0.187500
vt 0.972970 0.242098
vt 0.722970 0.304598
vt 0.722970 0.242098
vt 0.265726 0.687500
vt 0.234476 0.687500
vt 0.265726 0.250000
vt 0.234476 0.500000
vt 0.234476 0.593750
vt 0.203226 0.593750
vt 0.203226 0.593750
vt 0.972970 0.148348
vt 0.722970 0.179598
vt 0.722970 0.148348
vt 0.265726 0.093750
vt 0.234476 0.125000
vt 0.234476 0.093750
vt 0.980814 0.768466
vt 0.730814 0.799716
vt 0.730814 0.768466
vt 0.140726 0.093750
vt 0.015726 0.125000
vt 0.015726 0.093750
vt 0.140726 0.593750
vt 0.015726 0.625000
vt 0.015726 0.593750
vt 0.140726 0.250000
vt 0.015726 0.500000
vt 0.015726 0.250000
vt 0.140726 0.687500
vt 0.015726 0.750000
vt 0.015726 0.687500
vt 0.140726 0.187500
vt 0.015726 0.187500
vt 0.140726 0.750000
vt 0.015726 1.000000
vt 0.203226 0.093750
vt 0.171976 0.125000
vt 0.171976 0.093750
vt 0.171976 0.593750
vt 0.171976 0.625000
vt 0.171976 0.625000
vt 0.203226 0.250000
vt 0.171976 0.500000
vt 0.171976 0.250000
vt 0.203226 0.687500
vt 0.171976 0.750000
vt 0.171976 0.687500
vt 0.203226 0.187500
vt 0.171976 0.187500
vt 0.203226 0.750000
vt 0.171976 1.000000
vt 0.203226 0.125000
vt 0.171976 0.656250
vt 0.171976 0.656250
vt 0.203226 0.500000
vt 0.203226 1.000000
vt 0.140726 1.000000
vt 0.140726 0.500000
vt 0.140726 0.625000
vt 0.140726 0.125000
vt 0.171976 0.000000
vt 0.140726 0.062500
vt 0.140726 0.000000
vt 0.140726 0.656250
vt 0.234476 0.656250
vt 0.203226 0.656250
vt 0.234476 0.000000
vt 0.203226 0.062500
vt 0.203226 0.000000
vt 0.171976 0.062500
vt 0.015726 0.656250
vt 0.015726 0.062500
vt 0.015726 0.000000
vt 0.265726 0.000000
vt 0.234476 0.062500
vt 0.265726 0.656250
vt 0.972970 0.210848
vt 0.722970 0.210848
vt 0.980814 0.830966
vt 0.730814 0.830966
vt 0.140726 0.562500
vt 0.171976 0.156250
vt 0.140726 0.156250
vt 0.234476 0.156250
vt 0.203226 0.156250
vt 0.203226 0.562500
vt 0.171976 0.562500
vt 0.015726 0.156250
vt 0.015726 0.562500
vt 0.980814 0.674716
vt 0.730814 0.737216
vt 0.730814 0.674716
vt 0.972970 0.054598
vt 0.722970 0.117098
vt 0.722970 0.054598
vt 0.265726 0.500000
vt 0.234476 0.562500
vt 0.265726 0.156250
vt 0.980814 0.799716
vt 0.972970 0.179598
vt 0.265726 0.656250
vt 0.265726 0.625000
vt 0.265726 0.625000
vt 0.234476 0.656250
vt 0.265726 0.062500
vt 0.265726 0.125000
vt 0.980814 0.737216
vt 0.972970 0.117098
vt 0.265726 0.562500
vt 0.265726 0.593750
vt 0.234476 0.625000
vt 0.234476 0.593750
vt 0.171976 0.593750
vt 0.203226 0.625000
vt 0.203226 0.656250
vt 0.265726 0.593750
vt 0.980814 0.924716
vt 0.265726 1.000000
vt 0.972970 0.304598
vn 1.0000 0.0000 0.0000
vn 0.0000 0.0000 1.0000
vn 0.0000 1.0000 0.0000
vn -1.0000 0.0000 0.0000
vn -0.0000 -1.0000 0.0000
vn 0.0000 0.0000 -1.0000
usemtl Material
s off
f 37/1/1 3/2/1 36/3/1
f 3/4/2 24/5/2 26/6/2
f 47/7/3 27/8/3 56/9/3
f 38/10/4 8/11/4 35/12/4
f 36/13/5 26/6/5 44/14/5
f 5/15/6 25/16/6 27/8/6
f 75/17/6 87/18/6 74/19/6
f 78/20/4 9/21/4 71/22/4
f 59/23/3 28/24/3 63/25/3
f 77/26/1 10/27/1 72/28/1
f 61/29/3 9/30/3 65/31/3
f 73/32/5 12/33/5 78/34/5
f 16/35/6 2/36/6 6/37/6
f 40/38/5 4/39/5 38/40/5
f 52/41/3 6/37/3 49/42/3
f 15/43/2 8/44/2 4/39/2
f 62/45/3 33/46/3 64/47/3
f 76/48/4 89/49/4 32/50/4
f 22/51/6 29/52/6 31/53/6
f 42/54/5 30/55/5 45/56/5
f 54/57/3 31/53/3 57/58/3
f 21/59/2 34/60/2 30/55/2
f 63/25/3 23/61/3 62/45/3
f 32/50/4 94/62/4 70/63/4
f 27/8/6 20/64/6 22/51/6
f 44/14/5 21/59/5 42/54/5
f 56/9/3 22/51/3 54/57/3
f 26/6/2 19/65/2 21/59/2
f 30/55/2 14/66/2 15/43/2
f 57/58/3 16/35/3 52/41/3
f 45/56/5 15/43/5 40/38/5
f 31/53/6 13/67/6 16/35/6
f 76/48/5 17/68/5 73/32/5
f 64/47/3 18/69/3 61/29/3
f 34/70/3 39/71/3 14/72/3
f 70/63/5 40/38/5 67/73/5
f 69/74/5 42/54/5 68/75/5
f 24/76/3 41/77/3 19/78/3
f 68/75/5 45/56/5 70/63/5
f 19/78/3 46/79/3 34/70/3
f 67/73/5 38/40/5 60/80/5
f 14/72/3 35/81/3 8/82/3
f 7/83/3 43/84/3 24/76/3
f 66/85/5 44/14/5 69/74/5
f 60/86/4 35/12/4 65/87/4
f 59/88/1 36/3/1 66/89/1
f 29/52/5 51/90/5 13/67/5
f 82/91/3 52/41/3 79/92/3
f 81/93/3 54/57/3 80/94/3
f 25/16/5 53/95/5 20/64/5
f 80/94/3 57/58/3 82/91/3
f 20/64/5 58/96/5 29/52/5
f 79/92/3 49/42/3 71/97/3
f 13/67/5 48/98/5 2/36/5
f 5/99/1 50/100/1 1/101/1
f 2/102/4 49/103/4 6/104/4
f 1/105/5 55/106/5 25/16/5
f 77/107/3 56/9/3 81/93/3
f 11/108/1 66/89/1 10/27/1
f 12/109/4 65/87/4 9/21/4
f 69/74/2 91/110/2 66/85/2
f 17/68/5 60/80/5 12/33/5
f 66/85/1 84/111/1 10/112/1
f 68/75/2 93/113/2 69/74/2
f 32/50/5 67/73/5 17/68/5
f 46/79/3 61/29/3 39/71/3
f 43/84/3 62/45/3 41/77/3
f 41/77/3 64/47/3 46/79/3
f 39/71/3 65/31/3 35/81/3
f 37/114/3 63/25/3 43/84/3
f 11/115/3 81/93/3 28/24/3
f 18/69/3 71/97/3 9/30/3
f 23/61/3 82/91/3 33/46/3
f 28/24/3 80/94/3 23/61/3
f 33/46/3 79/92/3 18/69/3
f 58/96/5 73/32/5 51/90/5
f 55/106/5 74/19/5 53/95/5
f 53/95/5 76/48/5 58/96/5
f 51/90/5 78/34/5 48/98/5
f 47/116/1 72/28/1 50/100/1
f 48/117/4 71/22/4 49/103/4
f 50/118/5 75/17/5 55/106/5
f 83/119/5 85/120/5 88/121/5
f 87/18/5 89/49/5 90/122/5
f 88/121/5 86/123/5 87/18/5
f 84/111/5 93/113/5 85/120/5
f 86/123/5 94/62/5 89/49/5
f 85/120/5 92/124/5 86/123/5
f 74/19/6 90/122/6 76/48/6
f 70/63/2 92/124/2 68/75/2
f 10/112/1 83/119/1 72/125/1
f 72/125/6 88/121/6 75/17/6
f 37/1/1 7/126/1 3/2/1
f 3/4/2 7/127/2 24/5/2
f 47/7/3 5/15/3 27/8/3
f 38/10/4 4/128/4 8/11/4
f 36/13/5 3/4/5 26/6/5
f 5/15/6 1/105/6 25/16/6
f 75/17/6 88/121/6 87/18/6
f 78/20/4 12/109/4 9/21/4
f 59/23/3 11/115/3 28/24/3
f 77/26/1 11/108/1 10/27/1
f 61/29/3 18/69/3 9/30/3
f 73/32/5 17/68/5 12/33/5
f 16/35/6 13/67/6 2/36/6
f 40/38/5 15/43/5 4/39/5
f 52/41/3 16/35/3 6/37/3
f 15/43/2 14/66/2 8/44/2
f 62/45/3 23/61/3 33/46/3
f 76/48/4 90/122/4 89/49/4
f 22/51/6 20/64/6 29/52/6
f 42/54/5 21/59/5 30/55/5
f 54/57/3 22/51/3 31/53/3
f 21/59/2 19/65/2 34/60/2
f 63/25/3 28/24/3 23/61/3
f 32/50/4 89/49/4 94/62/4
f 27/8/6 25/16/6 20/64/6
f 44/14/5 26/6/5 21/59/5
f 56/9/3 27/8/3 22/51/3
f 26/6/2 24/5/2 19/65/2
f 30/55/2 34/60/2 14/66/2
f 57/58/3 31/53/3 16/35/3
f 45/56/5 30/55/5 15/43/5
f 31/53/6 29/52/6 13/67/6
f 76/48/5 32/50/5 17/68/5
f 64/47/3 33/46/3 18/69/3
f 34/70/3 46/79/3 39/71/3
f 70/63/5 45/56/5 40/38/5
f 69/74/5 44/14/5 42/54/5
f 24/76/3 43/84/3 41/77/3
f 68/75/5 42/54/5 45/56/5
f 19/78/3 41/77/3 46/79/3
f 67/73/5 40/38/5 38/40/5
f 14/72/3 39/71/3 35/81/3
f 7/83/3 37/114/3 43/84/3
f 66/85/5 36/13/5 44/14/5
f 60/86/4 38/10/4 35/12/4
f 59/88/1 37/1/1 36/3/1
f 29/52/5 58/96/5 51/90/5
f 82/91/3 57/58/3 52/41/3
f 81/93/3 56/9/3 54/57/3
f 25/16/5 55/106/5 53/95/5
f 80/94/3 54/57/3 57/58/3
f 20/64/5 53/95/5 58/96/5
f 79/92/3 52/41/3 49/42/3
f 13/67/5 51/90/5 48/98/5
f 5/99/1 47/116/1 50/100/1
f 2/102/4 48/117/4 49/103/4
f 1/105/5 50/118/5 55/106/5
f 77/107/3 47/7/3 56/9/3
f 11/108/1 59/88/1 66/89/1
f 12/109/4 60/86/4 65/87/4
f 69/74/2 93/113/2 91/110/2
f 17/68/5 67/73/5 60/80/5
f 66/85/1 91/110/1 84/111/1
f 68/75/2 92/124/2 93/113/2
f 32/50/5 70/63/5 67/73/5
f 46/79/3 64/47/3 61/29/3
f 43/84/3 63/25/3 62/45/3
f 41/77/3 62/45/3 64/47/3
f 39/71/3 61/29/3 65/31/3
f 37/114/3 59/23/3 63/25/3
f 11/115/3 77/107/3 81/93/3
f 18/69/3 79/92/3 71/97/3
f 23/61/3 80/94/3 82/91/3
f 28/24/3 81/93/3 80/94/3
f 33/46/3 82/91/3 79/92/3
f 58/96/5 76/48/5 73/32/5
f 55/106/5 75/17/5 74/19/5
f 53/95/5 74/19/5 76/48/5
f 51/90/5 73/32/5 78/34/5
f 47/116/1 77/26/1 72/28/1
f 48/117/4 78/20/4 71/22/4
f 50/118/5 72/125/5 75/17/5
f 83/119/5 84/111/5 85/120/5
f 87/18/5 86/123/5 89/49/5
f 88/121/5 85/120/5 86/123/5
f 84/111/5 91/110/5 93/113/5
f 86/123/5 92/124/5 94/62/5
f 85/120/5 93/113/5 92/124/5
f 74/19/6 87/18/6 90/122/6
f 70/63/2 94/62/2 92/124/2
f 10/112/1 84/111/1 83/119/1
f 72/125/6 83/119/6 88/121/6
