# Blender 3.3.1
# www.blender.org
mtllib rightTrack.mtl
o Cube
v -0.400000 0.600000 0.500000
v -0.400000 0.000000 0.500000
v -1.000000 0.600000 0.500000
v -1.000000 0.000000 0.500000
v -0.400000 0.600000 -0.500000
v -0.400000 0.000000 -0.500000
v -1.000000 0.600000 -0.500000
v -1.000000 0.000000 -0.500000
v -0.400000 0.300000 0.648125
v -1.000000 0.300000 -0.648125
v -1.000000 0.300000 0.648125
v -0.400000 0.300000 -0.648125
vn -0.0000 1.0000 -0.0000
vn -1.0000 -0.0000 -0.0000
vn -0.0000 0.4427 -0.8967
vn -0.0000 -1.0000 -0.0000
vn -0.0000 0.4427 0.8967
vn 1.0000 -0.0000 -0.0000
vn -0.0000 -0.4427 0.8967
vn -0.0000 -0.4427 -0.8967
vt 0.318824 0.500000
vt 0.160765 0.500000
vt 0.318824 0.750000
vt 0.160765 0.750000
vt 0.476882 0.500000
vt 0.318824 0.250000
vt 0.002707 0.500000
vt 0.160765 0.250000
vt 0.476882 0.750000
vt 0.318824 1.000000
vt 0.318824 0.000000
vt 0.160765 0.000000
vt 0.002707 0.750000
vt 0.160765 1.000000
vt 0.239794 0.500000
vt 0.239794 0.000000
vt 0.239794 1.000000
vt 0.239794 0.750000
vt 0.239794 0.250000
s 0
usemtl Material
f 5/5/1 3/3/1 1/1/1
f 3/3/2 10/17/2 11/18/2
f 7/11/3 12/19/3 10/16/3
f 2/2/4 8/13/4 6/7/4
f 1/1/5 11/18/5 9/15/5
f 5/6/6 9/15/6 12/19/6
f 12/19/6 2/2/6 6/8/6
f 9/15/7 4/4/7 2/2/7
f 10/16/8 6/8/8 8/12/8
f 11/18/2 8/14/2 4/4/2
f 5/5/1 7/9/1 3/3/1
f 3/3/2 7/10/2 10/17/2
f 7/11/3 5/6/3 12/19/3
f 2/2/4 4/4/4 8/13/4
f 1/1/5 3/3/5 11/18/5
f 5/6/6 1/1/6 9/15/6
f 12/19/6 9/15/6 2/2/6
f 9/15/7 11/18/7 4/4/7
f 10/16/8 12/19/8 6/8/8
f 11/18/2 10/17/2 8/14/2
